<?xml version="1.0" encoding="utf-8"?>
<!-- Generator: Adobe Illustrator 23.1.0, SVG Export Plug-In . SVG Version: 6.00 Build 0)  -->
<svg version="1.1" id="Calque_1" xmlns="http://www.w3.org/2000/svg" xmlns:xlink="http://www.w3.org/1999/xlink" x="0px" y="0px"
	 viewBox="0 0 119.98 140.07" style="enable-background:new 0 0 119.98 140.07;" xml:space="preserve">
<style type="text/css">
	.st0{fill:#FFFFFF;}
</style>
<g>
	<g>
		<path d="M51.06,123.55V32.52h-15.5v-3.75h83.16l1.25,29.75h-3.31c0-0.93-0.86-4.3-2.57-10.1c-1.72-5.8-4.22-9.91-7.53-12.31
			c-3.31-2.4-8.88-3.6-16.71-3.6H68.48v42.68h4.04c4.31,0,7.71-0.29,10.21-0.88c2.5-0.59,4.66-2.23,6.5-4.92
			c1.84-2.69,2.95-6.93,3.34-12.71h3.75v41.73h-3.75c-0.39-6.27-1.38-10.81-2.98-13.63c-1.59-2.82-3.61-4.54-6.06-5.18
			c-2.45-0.64-6.12-0.96-11.02-0.96h-4.04v44.89h17.34v3.75H35.56v-3.75H51.06z"/>
	</g>
	<g>
		<path class="st0" d="M67.87,76.34c-3.65,1.22-7.4,2.68-11.27,4.36c-3.86,1.68-7.75,3.56-11.66,5.65
			c-3.91,2.09-7.72,4.31-11.41,6.66c-1.73-3.21-3.72-6.38-5.98-9.5c-2.26-3.12-4.54-6.19-6.84-9.21c-2.3-3.02-4.51-5.99-6.62-8.89
			c-2.11-2.9-3.86-5.77-5.26-8.6c-1.2-2.4-1.88-4.81-2.05-7.24c-0.17-2.42,0.06-4.84,0.68-7.24c0.62-2.4,1.57-4.75,2.84-7.06
			c1.27-2.3,2.76-4.51,4.46-6.62c1.7-2.11,3.55-4.1,5.54-5.98c1.99-1.87,4.02-3.57,6.08-5.11c3.36-2.5,6.84-4.75,10.44-6.77
			c3.6-2.02,7.14-3.6,10.62-4.75c3.48-1.15,6.82-1.82,10.01-2.02c3.19-0.19,6.06,0.26,8.6,1.37c2.59,1.15,4.66,2.87,6.19,5.15
			c1.54,2.28,2.59,4.85,3.17,7.7c0.58,2.86,0.7,5.86,0.36,9c-0.02,0.16-0.05,0.31-0.06,0.46h3.25c0.19-2.58,0.15-5.1-0.16-7.56
			c-0.38-3.02-1.16-5.83-2.34-8.42c-1.18-2.59-2.8-4.78-4.86-6.55c-2.83-2.45-6.24-4.01-10.22-4.68c-3.99-0.67-8.22-0.65-12.71,0.07
			C44.19,1.28,39.63,2.62,35,4.59c-4.63,1.97-9.04,4.42-13.21,7.34c-3.7,2.59-7.15,5.58-10.37,8.96c-3.22,3.38-5.82,7.02-7.81,10.91
			c-1.99,3.89-3.17,7.96-3.53,12.2c-0.36,4.25,0.47,8.53,2.48,12.85c1.49,3.26,3.49,6.46,6.01,9.58c2.52,3.12,5.14,6.23,7.85,9.32
			c2.71,3.1,5.35,6.22,7.92,9.36c2.57,3.14,4.67,6.37,6.3,9.68c-5.76,3.84-10.93,7.94-15.52,12.31c-4.58,4.37-8.08,8.83-10.48,13.39
			c-0.57,1.07-1.03,2.17-1.43,3.29h3.2c0.13-0.26,0.25-0.51,0.39-0.77c1.15-2.06,2.59-4.14,4.32-6.23c1.73-2.09,3.68-4.18,5.87-6.26
			c2.18-2.09,4.56-4.14,7.13-6.16c2.57-2.02,5.27-3.98,8.1-5.9c1.2,3.46,1.62,7.07,1.26,10.84c-0.36,3.77-1.91,7.79-4.64,12.06
			c-1.87,2.88-4.04,5.39-6.52,7.52c-2.47,2.13-4.81,3.83-7.02,5.08c-2.78,1.58-4.99,2.28-6.62,2.09c-1.63-0.19-2.77-0.92-3.42-2.2
			c-0.65-1.27-0.83-2.9-0.54-4.9c0.08-0.56,0.2-1.12,0.35-1.67H2.3c-0.05,0.29-0.12,0.58-0.17,0.88c-0.38,2.66-0.2,5,0.54,7.02
			c0.74,2.02,2.15,3.46,4.21,4.32c2.06,0.86,4.9,0.72,8.5-0.43c1.68-0.53,3.42-1.26,5.22-2.2c1.8-0.94,3.54-2.04,5.22-3.31
			c1.68-1.27,3.26-2.71,4.75-4.32c1.49-1.61,2.78-3.4,3.89-5.36c1.44-2.35,2.48-4.69,3.13-7.02c0.65-2.33,0.96-4.63,0.94-6.91
			c-0.02-2.28-0.32-4.55-0.9-6.8c-0.58-2.26-1.37-4.49-2.38-6.7c3.65-2.35,7.4-4.58,11.27-6.7c3.86-2.11,7.68-4.03,11.45-5.76
			C61.74,82.28,71.52,75.11,67.87,76.34z"/>
		<path class="st0" d="M74.48,33.7c-0.25,0.83-0.53,1.66-0.85,2.46c-1.1,2.81-2.58,5.32-4.43,7.52c-1.85,2.21-4,3.82-6.44,4.82
			c-1.58,0.67-2.54,1.6-2.88,2.77c-0.34,1.18-0.22,2.21,0.36,3.1c0.58,0.89,1.51,1.4,2.81,1.55c1.3,0.14,2.76-0.53,4.39-2.02
			c2.02-1.78,3.82-3.97,5.4-6.59c1.58-2.62,2.88-5.44,3.89-8.46c0.56-1.69,1.02-3.41,1.39-5.16H74.48z"/>
	</g>
	<g>
		<path d="M50.84,123.3l0.33-60.51l17.08-5.59v17.76h4.04c4.31,0,7.71-0.29,10.21-0.88c2.5-0.59,4.67-2.23,6.5-4.92
			c1.84-2.69,2.95-6.93,3.34-12.71h3.75v41.73h-3.75c-0.39-6.27-1.38-10.81-2.98-13.63c-1.59-2.82-3.61-4.54-6.06-5.18
			c-2.45-0.63-6.12-0.96-11.02-0.96h-4.04v44.89H50.84z"/>
	</g>
</g>
</svg>
